<svg width="183" height="18" viewBox="0 0 183 18" fill="none" xmlns="http://www.w3.org/2000/svg">
<path d="M7.304 0.895999C8.844 0.895999 10.23 1.26267 11.462 1.996C12.7087 2.71467 13.684 3.70467 14.388 4.966C15.1067 6.21267 15.466 7.59867 15.466 9.124C15.466 10.6493 15.1067 12.0427 14.388 13.304C13.684 14.5507 12.7087 15.5407 11.462 16.274C10.23 16.9927 8.844 17.352 7.304 17.352C6.028 17.352 4.84 17.11 3.74 16.626C2.64 16.1273 1.70867 15.4087 0.946 14.47L3.036 12.468C3.57867 13.128 4.20933 13.6413 4.928 14.008C5.64667 14.36 6.43867 14.536 7.304 14.536C8.59467 14.536 9.70933 14.1693 10.648 13.436C11.5867 12.7027 12.188 11.698 12.452 10.422H5.544V7.826H12.452C12.188 6.55 11.5867 5.54533 10.648 4.812C9.70933 4.07867 8.59467 3.712 7.304 3.712C6.49733 3.712 5.764 3.87333 5.104 4.196C4.444 4.504 3.87933 4.93667 3.41 5.494L1.342 3.47C2.89667 1.754 4.884 0.895999 7.304 0.895999ZM18.2825 1.248H21.2525V7.54H27.8745V1.248H30.8445V17H27.8745V10.356H21.2525V17H18.2825V1.248ZM34.4603 1.248H44.4483V4.064H37.4303V7.716H43.7443V10.532H37.4303V14.184H44.4483V17H34.4603V1.248ZM47.5013 1.248H53.0453C54.0426 1.248 54.9519 1.46067 55.7733 1.886C56.5946 2.29667 57.2399 2.88333 57.7093 3.646C58.1786 4.394 58.4133 5.252 58.4133 6.22C58.4133 7.188 58.1786 8.05333 57.7093 8.816C57.2399 9.57867 56.5946 10.1727 55.7733 10.598C54.9519 11.0087 54.0426 11.214 53.0453 11.214H50.4713V17H47.5013V1.248ZM53.1333 8.398C53.8666 8.398 54.4386 8.18533 54.8493 7.76C55.2746 7.33467 55.4873 6.82133 55.4873 6.22C55.4873 5.61867 55.2746 5.11267 54.8493 4.702C54.4386 4.27667 53.8666 4.064 53.1333 4.064H50.4713V8.398H53.1333ZM60.929 1.248H70.565V4.064H63.899V17H60.929V1.248ZM79.7302 17.352C78.1902 17.352 76.7896 16.9927 75.5282 16.274C74.2816 15.5407 73.2989 14.5433 72.5802 13.282C71.8616 12.0207 71.5022 10.6347 71.5022 9.124C71.5022 7.61333 71.8616 6.22733 72.5802 4.966C73.2989 3.70467 74.2816 2.71467 75.5282 1.996C76.7896 1.26267 78.1902 0.895999 79.7302 0.895999C81.2702 0.895999 82.6636 1.26267 83.9102 1.996C85.1716 2.71467 86.1616 3.70467 86.8802 4.966C87.5989 6.22733 87.9582 7.61333 87.9582 9.124C87.9582 10.6347 87.5989 12.0207 86.8802 13.282C86.1616 14.5433 85.1716 15.5407 83.9102 16.274C82.6636 16.9927 81.2702 17.352 79.7302 17.352ZM79.7302 14.536C80.6982 14.536 81.5856 14.3087 82.3922 13.854C83.1989 13.3993 83.8296 12.7613 84.2842 11.94C84.7536 11.1187 84.9882 10.18 84.9882 9.124C84.9882 8.068 84.7536 7.12933 84.2842 6.308C83.8296 5.48667 83.1989 4.84867 82.3922 4.394C81.5856 3.93933 80.6982 3.712 79.7302 3.712C78.7622 3.712 77.8749 3.93933 77.0682 4.394C76.2762 4.84867 75.6456 5.48667 75.1762 6.308C74.7216 7.12933 74.4942 8.068 74.4942 9.124C74.4942 10.18 74.7216 11.1187 75.1762 11.94C75.6456 12.7613 76.2762 13.3993 77.0682 13.854C77.8749 14.3087 78.7622 14.536 79.7302 14.536Z" fill="#139967"/>
<path d="M90.7708 1.248H96.3148C97.3121 1.248 98.2215 1.46067 99.0428 1.886C99.8641 2.29667 100.509 2.88333 100.979 3.646C101.448 4.394 101.683 5.252 101.683 6.22C101.683 7.188 101.448 8.05333 100.979 8.816C100.509 9.57867 99.8641 10.1727 99.0428 10.598C98.2215 11.0087 97.3121 11.214 96.3148 11.214H93.7408V17H90.7708V1.248ZM96.4028 8.398C97.1361 8.398 97.7081 8.18533 98.1188 7.76C98.5441 7.33467 98.7568 6.82133 98.7568 6.22C98.7568 5.61867 98.5441 5.11267 98.1188 4.702C97.7081 4.27667 97.1361 4.064 96.4028 4.064H93.7408V8.398H96.4028ZM104.199 1.248H114.187V4.064H107.169V7.716H113.483V10.532H107.169V14.184H114.187V17H104.199V1.248ZM117.24 1.248H121.068L125.248 12.314H125.424L129.604 1.248H133.454V17H130.506V9.234L130.682 6.616H130.506L126.502 17H124.192L120.166 6.616H119.99L120.166 9.234V17H117.24V1.248ZM144.269 17.352C142.729 17.352 141.329 16.9927 140.067 16.274C138.821 15.5407 137.838 14.5433 137.119 13.282C136.401 12.0207 136.041 10.6347 136.041 9.124C136.041 7.61333 136.401 6.22733 137.119 4.966C137.838 3.70467 138.821 2.71467 140.067 1.996C141.329 1.26267 142.729 0.895999 144.269 0.895999C145.809 0.895999 147.203 1.26267 148.449 1.996C149.711 2.71467 150.701 3.70467 151.419 4.966C152.138 6.22733 152.497 7.61333 152.497 9.124C152.497 10.6347 152.138 12.0207 151.419 13.282C150.701 14.5433 149.711 15.5407 148.449 16.274C147.203 16.9927 145.809 17.352 144.269 17.352ZM144.269 14.536C145.237 14.536 146.125 14.3087 146.931 13.854C147.738 13.3993 148.369 12.7613 148.823 11.94C149.293 11.1187 149.527 10.18 149.527 9.124C149.527 8.068 149.293 7.12933 148.823 6.308C148.369 5.48667 147.738 4.84867 146.931 4.394C146.125 3.93933 145.237 3.712 144.269 3.712C143.301 3.712 142.414 3.93933 141.607 4.394C140.815 4.84867 140.185 5.48667 139.715 6.308C139.261 7.12933 139.033 8.068 139.033 9.124C139.033 10.18 139.261 11.1187 139.715 11.94C140.185 12.7613 140.815 13.3993 141.607 13.854C142.414 14.3087 143.301 14.536 144.269 14.536ZM155.31 1.248H158.28V7.54H164.902V1.248H167.872V17H164.902V10.356H158.28V17H155.31V1.248ZM174.678 4.064H170.278V1.248H182.048V4.064H177.648V17H174.678V4.064Z" fill="black"/>
</svg>
